<svg xmlns="http://www.w3.org/2000/svg" id="Layer_2" data-name="Layer 2" viewBox="0 0 1400 1400"><defs><style>      .cls-1 {        fill: #f75023;      }      .cls-2 {        fill: none;      }    </style></defs><g id="Layer_1-2" data-name="Layer 1"><g><rect class="cls-2" width="1400" height="1400" rx="183.52" ry="183.52"></rect><g><path class="cls-1" d="m451.75,492.94v415.45c0,136.12,115.79,171.12,170.46,180.05,16.16,2.64,27.95,16.46,27.95,32.83v45.44c0,18.38-14.9,33.29-33.29,33.29h-116.51c-23.67,0-46.01-6.16-65.34-17.03-21.49-12.08-46.83-12.05-68.51-.31-18.83,10.19-40.38,16.01-63.21,16.01h-116.51c-18.38,0-33.29-14.9-33.29-33.29v-45.23c0-16.46,11.92-30.3,28.18-32.86,54.76-8.62,170.23-43.06,170.23-180.23v-415.45c0-136.12-115.79-171.12-170.45-180.05-16.16-2.64-27.95-16.46-27.95-32.83v-45.44c0-18.38,14.9-33.29,33.29-33.29h116.51c23.67,0,46.01,6.16,65.35,17.04,21.48,12.08,46.83,12.05,68.5.31,18.83-10.2,40.38-16.02,63.22-16.02h116.51c18.38,0,33.29,14.9,33.29,33.29v45.23c0,16.46-11.92,30.31-28.18,32.86-54.76,8.62-170.23,43.06-170.23,180.23Z"></path><path class="cls-1" d="m1048.12,492.94v415.45c0,136.15,115.84,171.11,170.44,180.09,16.31,2.66,27.96,16.31,27.96,32.62v45.61c0,18.31-14.98,33.29-33.29,33.29h-116.51c-23.63,0-45.94-6.32-65.25-16.98-21.64-11.98-46.94-11.98-68.58-.33-18.97,10.32-40.28,15.98-63.25,15.98h-116.51c-18.31,0-33.29-14.98-33.29-33.29v-45.27c0-16.31,11.98-30.29,28.29-32.96,54.59-8.32,169.77-42.94,170.11-179.43v-74.57c0-100.86-81.89-183.09-183.09-183.09h-64.91c-27.63,0-49.93,22.31-49.93,49.93s22.3,49.93,49.93,49.93h64.91c45.94,0,83.22,37.29,83.22,83.22v74.57c0,45.94-37.28,83.22-83.22,83.22h-130.16c-45.94,0-83.22-37.28-83.22-83.22v-415.45c0-45.94,37.28-83.22,83.22-83.22h130.16c45.94,0,83.22,37.28,83.22,83.22,0,27.63,22.64,49.93,49.93,49.93s49.93-22.3,49.93-49.93v-.66c0-136.15-115.85-171.11-170.44-180.09-16.31-2.66-27.96-16.31-27.96-32.62v-45.61c0-18.31,14.98-33.29,33.29-33.29h116.51c23.64,0,45.94,6.32,65.25,16.98,21.64,11.98,46.94,11.98,68.58.33,18.97-10.32,40.28-15.98,63.25-15.98h116.51c18.31,0,33.29,14.98,33.29,33.29v45.27c0,16.31-11.98,30.29-28.29,32.96-54.59,8.32-170.11,42.94-170.11,180.09Z"></path></g></g></g></svg>